<?xml version="1.0" standalone="no"?>
<!DOCTYPE svg PUBLIC "-//W3C//DTD SVG 20010904//EN"
 "http://www.w3.org/TR/2001/REC-SVG-20010904/DTD/svg10.dtd">
<svg version="1.0" xmlns="http://www.w3.org/2000/svg"
 width="117.000000pt" height="50.000000pt" viewBox="0 0 117.000000 50.000000"
 preserveAspectRatio="xMidYMid meet">

<g transform="translate(0.000000,50.000000) scale(0.100000,-0.100000)"
fill="#000000" stroke="none">
<path d="M0 250 l0 -250 585 0 585 0 0 250 0 250 -585 0 -585 0 0 -250z m1008
141 c58 -29 84 -73 79 -129 -5 -50 -33 -84 -92 -115 -32 -17 -67 -22 -180 -27
-77 -4 -144 -4 -150 -1 -5 3 58 8 140 11 129 5 156 9 191 27 80 43 106 125 58
183 -37 43 -77 61 -158 71 l-71 8 70 -3 c48 -2 84 -10 113 -25z m-498 9 c-8
-5 -12 -10 -7 -10 4 0 16 5 27 12 15 10 22 9 38 -5 24 -22 110 -23 178 -2 27
8 56 14 64 14 8 0 -14 -9 -50 -20 -101 -30 -285 -22 -265 12 4 5 12 9 18 9 7
0 6 -4 -3 -10z m-409 -62 c17 -35 43 -83 57 -107 l25 -44 27 54 28 53 27 -53
27 -54 19 32 c10 17 35 62 54 100 30 60 55 95 55 76 0 -3 -25 -55 -55 -115
-33 -65 -61 -110 -70 -110 -8 0 -24 19 -36 41 l-21 42 -22 -39 c-12 -21 -28
-39 -36 -39 -14 0 -119 186 -120 213 0 24 10 11 41 -50z m39 -8 c19 -38 37
-70 40 -70 4 0 12 11 18 25 10 21 9 33 -8 65 -11 22 -20 42 -20 45 0 15 22
-10 41 -48 l21 -41 -23 -43 c-13 -24 -26 -43 -29 -43 -3 0 -27 41 -53 90 -31
58 -43 90 -34 90 7 0 28 -31 47 -70z m115 -5 l40 -74 38 74 c20 41 42 75 47
75 6 0 10 -3 10 -6 0 -8 -91 -174 -95 -174 -5 0 -95 165 -95 174 0 22 20 -4
55 -69z m185 -44 c0 -59 15 -91 43 -91 6 0 1 7 -11 16 -19 13 -22 24 -22 77 0
76 18 66 22 -13 l3 -55 45 0 45 0 3 63 c4 79 22 82 22 3 0 -51 -4 -62 -22 -76
l-23 -17 22 7 c19 5 22 1 26 -27 2 -18 5 13 5 70 1 60 6 102 12 102 15 0 12
-190 -3 -220 -18 -37 -74 -62 -122 -55 -46 7 -47 8 -40 26 4 10 17 13 44 11
43 -4 81 22 81 56 0 15 -6 18 -30 14 -40 -6 -76 4 -100 28 -16 16 -20 34 -20
80 0 33 4 60 10 60 6 0 10 -26 10 -59z m227 -74 c-2 -23 -3 -2 -3 48 0 50 1
68 3 42 2 -26 2 -67 0 -90z m83 123 c-13 -9 -13 -10 0 -10 8 0 0 -9 -17 -20
-31 -18 -33 -23 -33 -75 0 -36 -4 -54 -10 -50 -9 6 -12 139 -4 155 1 3 20 7
41 8 28 2 34 0 23 -8z m180 -5 c33 -17 54 -50 46 -71 -6 -17 -131 -20 -141 -4
-4 6 18 10 59 10 36 0 66 4 66 10 0 11 -40 50 -52 50 -5 0 4 -11 19 -25 l28
-24 -65 1 -65 1 50 7 50 6 -29 12 c-46 20 -96 -3 -96 -44 0 -31 33 -48 81 -41
37 5 53 -5 27 -17 -7 -3 -2 -3 12 0 24 5 24 4 6 -10 -27 -22 -95 -20 -133 4
-56 34 -56 96 0 131 38 23 97 25 137 4z"/>
<path d="M564 108 l-19 -23 23 19 c21 18 27 26 19 26 -2 0 -12 -10 -23 -22z"/>
<path d="M458 83 c6 -2 18 -2 25 0 6 3 1 5 -13 5 -14 0 -19 -2 -12 -5z"/>
<path d="M518 83 c7 -3 16 -2 19 1 4 3 -2 6 -13 5 -11 0 -14 -3 -6 -6z"/>
<path d="M695 310 c-3 -6 1 -7 9 -4 18 7 21 14 7 14 -6 0 -13 -4 -16 -10z"/>
<path d="M853 323 c9 -2 23 -2 30 0 6 3 -1 5 -18 5 -16 0 -22 -2 -12 -5z"/>
<path d="M790 300 c-11 -11 -20 -30 -20 -43 0 -22 37 -67 54 -67 5 0 -3 9 -18
21 -34 26 -34 62 0 88 15 12 22 21 15 21 -6 0 -20 -9 -31 -20z"/>
<path d="M848 183 c6 -2 18 -2 25 0 6 3 1 5 -13 5 -14 0 -19 -2 -12 -5z"/>
</g>
</svg>
